<svg width="24" height="18" viewBox="0 0 24 18" fill="none" xmlns="http://www.w3.org/2000/svg">
<path d="M11.9891 17.4535C8.82975 17.4535 5.67035 17.4535 2.51532 17.4535C2.32384 17.4535 2.13237 17.4448 1.94524 17.4013C1.54923 17.3099 1.19674 17.1315 0.887765 16.8617C0.465643 16.4874 0.191475 16.0218 0.0652739 15.4691C0.0217562 15.2776 0 15.0862 0 14.886C0 14.4247 0 13.9634 0 13.5065C0 10.0599 0 6.6176 0 3.171C0 2.91425 0.0304672 2.6575 0.100095 2.40944C0.295925 1.72187 0.696287 1.19096 1.32294 0.838463C1.67108 0.642633 2.04534 0.546875 2.4457 0.546875C3.10717 0.546875 3.76864 0.546875 4.42575 0.546875C10.1135 0.546875 15.8013 0.546875 21.489 0.546875C21.7893 0.546875 22.0765 0.590378 22.3594 0.69482C22.7641 0.847132 23.1035 1.08649 23.3777 1.41723C23.6954 1.79583 23.8868 2.23101 23.9652 2.7184C23.9869 2.85331 24 2.98388 24 3.11879C24 7.03973 24 10.9563 24 14.8773C24 15.4952 23.8085 16.0609 23.4169 16.544C22.9991 17.0575 22.4595 17.3665 21.798 17.4448C21.7501 17.4492 21.7023 17.4491 21.6544 17.4535C21.5717 17.4535 21.489 17.4535 21.4063 17.4535C18.2687 17.4535 15.1311 17.4535 11.9978 17.4535H11.9891ZM11.9891 16.1872C15.1224 16.1872 18.2557 16.1872 21.3889 16.1872C21.4368 16.1872 21.4847 16.1872 21.5326 16.1872C21.9634 16.1872 22.2985 15.9957 22.5509 15.6475C22.7206 15.4082 22.7946 15.1427 22.7946 14.8511C22.7946 11.1478 22.7946 7.44877 22.7946 3.74541C22.7946 3.7106 22.7946 3.67579 22.7946 3.64098C22.7946 3.61051 22.7684 3.59749 22.738 3.61489C22.7075 3.6323 22.6814 3.65406 22.651 3.67147C22.4899 3.78461 22.3333 3.89772 22.1723 4.01087C21.6587 4.37641 21.1452 4.73762 20.6317 5.10316C20.1617 5.4339 19.6961 5.76465 19.2261 6.09538C18.7953 6.4 18.3601 6.70897 17.9293 7.0136C17.468 7.33998 17.0067 7.66636 16.5454 7.99274C16.0972 8.31042 15.6533 8.62377 15.2051 8.94145C14.9048 9.15469 14.6045 9.36792 14.3043 9.58551C14.2172 9.65078 14.1258 9.70737 14.0344 9.76394C13.4557 10.1077 12.8246 10.2383 12.1588 10.1904C11.876 10.1686 11.5975 10.1164 11.3277 10.0381C10.9099 9.91626 10.5095 9.74651 10.1396 9.51586C9.84371 9.33309 9.55213 9.14596 9.25621 8.96318C8.75575 8.64985 8.25529 8.33656 7.75484 8.01888C7.33707 7.75777 6.92366 7.49665 6.50589 7.23554C6.12293 6.99619 5.74 6.75684 5.35704 6.51749C4.93057 6.24768 4.50409 5.98223 4.07762 5.71242C3.59457 5.4078 3.11152 5.10755 2.63283 4.80727C2.19765 4.53311 1.76248 4.2633 1.33165 3.98914C1.30989 3.97608 1.28812 3.96304 1.26201 3.94999C1.2446 3.94128 1.22721 3.94996 1.22286 3.97171C1.22286 4.02394 1.2185 4.07615 1.2185 4.12837C1.2185 7.67071 1.2185 11.2131 1.2185 14.7511C1.2185 14.8076 1.2185 14.8642 1.2185 14.9208C1.2185 15.0687 1.24897 15.2167 1.30119 15.3516C1.4448 15.7128 1.68849 15.9783 2.05839 16.1132C2.2107 16.1697 2.3717 16.1872 2.53272 16.1872C5.68775 16.1872 8.84278 16.1872 11.9978 16.1872H11.9891ZM11.9978 1.81325C8.895 1.81325 5.79221 1.81325 2.6894 1.81325C2.63718 1.81325 2.58494 1.81325 2.53272 1.81325C2.41522 1.81761 2.29773 1.82194 2.18458 1.84805C1.85385 1.92203 1.6058 2.11786 1.42302 2.39638C1.33164 2.53128 1.34471 2.52692 1.46656 2.60525C1.94525 2.90552 2.42394 3.20583 2.90264 3.5061C3.45096 3.84989 3.99927 4.19368 4.54759 4.53747C5.04369 4.85079 5.53981 5.16413 6.03591 5.47311C6.59294 5.82125 7.1456 6.16935 7.70262 6.51749C8.18567 6.81776 8.66872 7.12242 9.14741 7.42269C9.63481 7.72731 10.1222 8.03193 10.6053 8.34091C10.8359 8.48887 11.0796 8.61506 11.3364 8.7108C11.715 8.85005 12.1023 8.93272 12.507 8.91532C12.8899 8.90226 13.2424 8.79781 13.5601 8.58022C13.6297 8.53235 13.695 8.4845 13.7603 8.43663C14.2608 8.08414 14.7612 7.72732 15.2616 7.37483C16.1059 6.77864 16.9458 6.17809 17.79 5.57754C18.5298 5.05098 19.274 4.52877 20.0138 4.00221C20.7579 3.47564 21.5021 2.94907 22.2463 2.41816C22.3072 2.37464 22.3681 2.3311 22.4247 2.28758C22.4638 2.25712 22.4638 2.23973 22.429 2.20057C22.2375 1.99604 22.0112 1.86114 21.7327 1.82632C21.5935 1.80892 21.4542 1.80019 21.315 1.80019C18.2078 1.80019 15.1006 1.80019 11.9935 1.80019L11.9978 1.81325Z" fill="#949494"/>
</svg>
